<svg xmlns="http://www.w3.org/2000/svg" viewBox="0 0 1142.88 1080"><defs><style>.cls-1{fill:#009bdb;}</style></defs><title>WE CAN!</title><g id="text"><path class="cls-1" d="M304.51,358.68c0,6.31-.32,12.55-.92,18.76V339.92C304.19,346.13,304.51,352.37,304.51,358.68Z"/><path class="cls-1" d="M1068,300.58V545.66c0,175.09-142,317.05-317,317.05a315.74,315.74,0,0,1-157.15-41.62A316.51,316.51,0,0,0,708.47,594.36a68.57,68.57,0,0,0,114.47-51V134C941.13,134,1040.39,204.83,1068,300.58Z"/><path class="cls-1" d="M685.79,289V545.66A317,317,0,0,1,126.64,750.31a315.17,315.17,0,0,1-51.75-171.8c0-.63,0-1.23,0-1.86V169.21q0-15.3,1.44-30.29c121,10.17,217.09,94.94,227.29,201V543.41A68.55,68.55,0,0,0,434.9,571a63,63,0,0,0,4.2-12.94,65,65,0,0,0,1.62-14.66V455.62C459.05,392.06,509,339.43,575.07,311.28A282,282,0,0,1,685.79,289Z"/></g></svg>